# xmcd CD database file
#
# Track frame offsets:
#	150
#	28837
#	53997
#	68240
#	94814
#	111456
#	119339
#	130613
#	145958
#
# Disc length: 2319 seconds
#
# Revision: 1
# Processed by: cddbd v1.5.2PL0 Copyright (c) Steve Scherf et al.
# Submitted via: CDex 1.51
#
DISCID=85090d09
DTITLE=Trio Gitan - 20 ans de Trio Gitan - Le Nouveau Trio Gitan  (David Reinhardt, Christian Escoudé, Jean-Baptiste Laya)
DYEAR=2006
DGENRE=Jazz
TTITLE0=Loro
TTITLE1=Adios Nonimos
TTITLE2=Gagoug
TTITLE3=It might as well be spring
TTITLE4=Reflexion
TTITLE5=La Folle
TTITLE6=Chovendo da Roseira
TTITLE7=Dancing de la plage
TTITLE8=Young at heart
EXTD=YEAR: 2006
EXTT0=
EXTT1=
EXTT2=
EXTT3=
EXTT4=
EXTT5=
EXTT6=
EXTT7=
EXTT8=
PLAYORDER=
